HIERARCHY
ROOT Hips
{
  OFFSET 0.382225 96.6805 0.598322
  CHANNELS 6 Xposition Yposition Zposition Zrotation Xrotation Yrotation
  JOINT Spine
  {
    OFFSET 10.8089 -0.851416 0
    CHANNELS 3 Zrotation Xrotation Yrotation
    JOINT Spine1
    {
      OFFSET 18.8753 3.80116 0
      CHANNELS 3 Zrotation Xrotation Yrotation
      JOINT Spine2
      {
        OFFSET 13.4073 0.420477 0
        CHANNELS 3 Zrotation Xrotation Yrotation
        JOINT LeftShoulder
        {
          OFFSET 11.8837 -2.73209 -3.78198
          CHANNELS 3 Zrotation Xrotation Yrotation
          JOINT LeftArm
          {
            OFFSET 15.7849 0 -2.35849e-005
            CHANNELS 3 Zrotation Xrotation Yrotation
            JOINT LeftForeArm
            {
              OFFSET 30.3399 0 0
              CHANNELS 3 Zrotation Xrotation Yrotation
              JOINT LeftHand
              {
                OFFSET 26.9751 0 2.45913e-005
                CHANNELS 3 Zrotation Xrotation Yrotation
                End Site
                {
                  OFFSET 8 0 0
                }
              }
            }
          }
        }
        JOINT RightShoulder
        {
          OFFSET 11.8838 -2.7321 3.782
          CHANNELS 3 Zrotation Xrotation Yrotation
          JOINT RightArm
          {
            OFFSET -15.7848 0 -1.07056e-005
            CHANNELS 3 Zrotation Xrotation Yrotation
            JOINT RightForeArm
            {
              OFFSET -30.34 1.02096e-005 -2.53607e-005
              CHANNELS 3 Zrotation Xrotation Yrotation
              JOINT RightHand
              {
                OFFSET -26.9752 2.07668e-005 0
                CHANNELS 3 Zrotation Xrotation Yrotation
                End Site
                {
                  OFFSET -8 0 0
                }
              }
            }
          }
        }
        JOINT Neck
        {
          OFFSET 16.5588 -0.355318 0
          CHANNELS 3 Zrotation Xrotation Yrotation
          JOINT Head
          {
            OFFSET 9.28361 0.364157 0
            CHANNELS 3 Zrotation Xrotation Yrotation
            End Site
            {
              OFFSET 0 0 0
            }
          }
        }
      }
    }
  }
  JOINT LeftUpLeg
  {
    OFFSET -1.44883 -0.531424 -9.00581
    CHANNELS 3 Zrotation Xrotation Yrotation
    JOINT LeftLeg
    {
      OFFSET -42.572 0.0788889 -0.011964
      CHANNELS 3 Zrotation Xrotation Yrotation
      JOINT LeftFoot
      {
        OFFSET -40.1967 0 0
        CHANNELS 3 Zrotation Xrotation Yrotation
				JOINT LeftToe
        {
          OFFSET -10.4538 -16.5779 0.0801563
          CHANNELS 3 Zrotation Xrotation Yrotation
          End Site
          {
            OFFSET -1.0 -1.0 0.0
          }
        }
      }
    }
  }
  JOINT RightUpLeg
  {
    OFFSET -1.44865 -0.531427 9.0058
    CHANNELS 3 Zrotation Xrotation Yrotation
    JOINT RightLeg
    {
      OFFSET 42.5723 -3.24776e-005 0
      CHANNELS 3 Zrotation Xrotation Yrotation
      JOINT RightFoot
      {
        OFFSET 40.1968 0 -1.14003e-005
        CHANNELS 3 Zrotation Xrotation Yrotation
				JOINT RightToe
        {
          OFFSET 10.4538 16.5778 -0.0801573
          CHANNELS 3 Zrotation Xrotation Yrotation
          End Site
          {
            OFFSET -1.0 -1.0 0.0
          }
        }
      }
    }
  }
}
MOTION
Frames:	14
Frame Time:	0.0333333
100.705 97.0599 87.3745 -58.4001 -83.7229 -151.34 -9.06381 -2.1814 3.76734 19.0627 -0.264703 -0.470678 2.7794 1.93418e-006 1.65929e-005 0.289724 17.9072 70.1222 -15.9322 16.5933 11.0838 2.45108 -14.3805 8.94691 -64.3054 -65.8207 -59.427 -176.322 8.25539 72.1296 -14.6067 -17.3028 12.8021 -4.50131 -6.79476 -0.210133 -3.86385 -62.254 4.63384 -23.508 4.63459e-006 -5.90926e-006 7.47362 -7.13461 2.33595 2.52207 30.7963 4.2308 -0.16905 -5.91715 2.62496 -3.19968 -5.27229 2.09596 -90 0 0 -165.966 11.699 -7.69451 -17.3636 -5.51355 0.265666 6.16252 -5.33399 3.27322 -90 0 0
101.221 97.0371 87.3645 -59.171 -83.668 -151.923 -9.30402 -2.34921 3.97389 19.0606 -0.264581 -0.470482 2.7794 1.93418e-006 1.65929e-005 0.365587 17.958 69.861 -15.9112 16.7614 11.2158 2.39181 -13.8955 8.9998 -64.8848 -66.0944 -60.1121 -176.377 8.28335 72.347 -14.4711 -17.321 13.0991 -4.47472 -6.79268 -0.208726 -4.08247 -61.5426 4.53097 -23.508 4.63459e-006 -5.90926e-006 7.78586 -6.91658 1.79812 2.40755 30.8856 4.40732 -0.226679 -5.96327 2.58828 -2.86638 -5.32701 1.93659 -90 0 0 -164.295 11.5862 -7.9765 -20.1906 -5.41282 -0.145365 5.63505 -5.55348 3.77415 -90 0 0
101.672 97.0386 87.3658 -60.037 -83.7296 -152.528 -9.56963 -2.55842 4.00411 19.0397 -0.263205 -0.468323 2.7794 1.93418e-006 1.65929e-005 0.420123 18.0353 69.7103 -15.859 16.7331 11.3476 2.37728 -13.7751 9.01275 -65.4656 -66.3237 -60.7174 -176.405 8.33395 72.4627 -14.4506 -17.1543 13.3243 -4.42529 -6.79147 -0.208362 -3.69773 -61.3933 5.02321 -23.508 4.63459e-006 -5.90926e-006 7.93985 -6.66292 1.46795 2.31439 30.5066 4.44285 -0.202284 -5.97971 2.57827 -2.69957 -5.05444 1.76153 -90 0 0 -163.021 11.6821 -8.20794 -22.3782 -5.32264 -0.438869 4.93193 -5.7055 4.39879 -90 0 0
101.973 97.0459 87.4037 -60.1507 -84.048 -152.335 -9.79375 -2.88307 3.95228 19.0075 -0.26097 -0.465603 2.7794 1.93418e-006 1.65929e-005 0.445746 18.0061 69.5842 -15.868 16.7538 11.4617 2.33977 -13.4762 9.0452 -65.6474 -66.4091 -60.9318 -176.426 8.43489 72.5645 -14.42 -16.9312 13.4594 -4.46309 -6.79078 -0.208218 -2.92954 -61.1936 5.78424 -23.508 4.63459e-006 -5.90926e-006 7.90332 -6.53765 1.22547 2.21103 30.2297 4.35477 -0.19253 -5.99603 2.56817 -2.5831 -5.08427 1.53895 -90 0 0 -162.396 12.1116 -8.33458 -23.548 -5.27283 -0.588144 4.82697 -5.273 5.26318 -90 0 0
102.235 97.0615 87.4686 -60.024 -84.2542 -151.984 -9.84282 -3.02755 3.89882 18.9613 -0.258871 -0.462743 2.7794 1.93418e-006 1.65929e-005 0.446756 17.9999 69.5736 -15.9898 16.8235 11.5482 2.32659 -13.3685 9.05674 -65.2579 -66.4816 -60.6892 -176.418 8.5838 72.5633 -14.4961 -16.6656 13.5034 -4.45246 -6.79107 -0.207686 -3.19974 -61.0857 5.49734 -23.508 4.63459e-006 -5.90926e-006 7.78901 -6.31955 1.13371 2.08815 30.0501 4.32668 -0.100124 -5.9897 2.5809 -2.54927 -5.13048 1.37888 -90 0 0 -162.297 12.7651 -8.44206 -23.3236 -5.28177 -0.559792 5.33383 -4.82273 5.49234 -90 0 0
102.382 97.0706 87.5834 -58.929 -84.4477 -150.723 -9.67344 -3.16053 3.89811 18.9543 -0.257904 -0.460712 2.7794 1.93418e-006 1.65929e-005 0.429418 17.9475 69.599 -16.0568 16.9122 11.5224 2.34511 -13.5065 9.04193 -64.7152 -66.4571 -60.099 -176.438 8.65674 72.6499 -14.4492 -16.5949 13.4227 -4.49167 -6.79248 -0.209769 -3.02994 -61.0137 5.76017 -23.508 4.63459e-006 -5.90926e-006 7.45801 -6.08791 1.01865 2.11846 29.8897 4.24004 -0.201378 -5.99239 2.56481 -2.3862 -5.21183 1.29598 -90 0 0 -162.698 13.4092 -8.42945 -21.761 -5.35036 -0.35832 6.34137 -4.70102 5.40349 -90 0 0
102.473 97.0526 87.726 -57.5026 -84.4698 -149.265 -9.31317 -3.14401 4.00763 18.9637 -0.259065 -0.461592 2.7794 1.93418e-006 1.65929e-005 0.417678 17.9421 69.6391 -16.1714 16.9846 11.4762 2.36907 -13.6885 9.02216 -64.5858 -66.5192 -60.0895 -176.422 8.78458 72.6134 -14.4938 -16.6755 13.3812 -4.5276 -6.79471 -0.213166 -2.55866 -61.0255 6.16807 -23.508 4.63459e-006 -5.90926e-006 7.15799 -5.93678 0.998364 2.05659 29.7987 4.33066 -0.0998167 -5.98924 2.57681 -2.29567 -5.20277 1.17874 -90 0 0 -163.314 14.2238 -8.42376 -19.0209 -5.47258 0.0200079 6.08471 -5.02992 5.55864 -90 0 0
102.483 97.0062 87.8693 -55.9301 -84.3289 -147.801 -8.87743 -2.99863 4.29033 19.0728 -0.265285 -0.471603 2.7794 1.93418e-006 1.65929e-005 0.400871 17.9327 69.6983 -16.2166 16.9555 11.2922 2.36065 -13.6178 9.02987 -64.4406 -66.7159 -59.929 -176.416 8.84064 72.6019 -14.4628 -16.7191 13.28 -4.56257 -6.79749 -0.217133 -2.05687 -61.063 6.66164 -23.508 4.63459e-006 -5.90926e-006 6.90823 -5.93246 1.0244 2.15745 29.8169 4.45624 -0.220573 -5.98404 2.56262 -2.07734 -5.15919 1.09431 -90 0 0 -164.001 15.1098 -8.34677 -15.6339 -5.60071 0.530862 4.12513 -5.74937 4.63574 -90 0 0
102.438 96.9648 88.0094 -54.372 -83.9968 -146.367 -8.32524 -2.75864 4.53021 19.216 -0.273468 -0.484725 2.7794 1.93418e-006 1.65929e-005 0.368187 18.0364 69.9215 -16.1863 17.0165 10.9943 2.40145 -13.9338 8.99555 -64.1765 -66.7425 -59.7206 -176.424 8.87345 72.6351 -14.534 -16.841 13.1087 -4.57796 -6.80057 -0.220926 -2.6917 -61.1046 6.15514 -23.508 4.63459e-006 -5.90926e-006 6.65822 -6.05527 1.2732 2.24936 29.8318 4.58802 -0.10007 -5.98055 2.57962 -2.01114 -4.9908 1.04455 -90 0 0 -164.201 15.3999 -8.16771 -13.993 -5.65013 0.784376 3.26766 -5.33516 3.28733 -90 0 0
102.335 96.9755 88.189 -53.6196 -83.6533 -145.71 -7.77091 -2.52997 4.65688 19.3295 -0.279975 -0.495129 2.7794 1.93418e-006 1.65929e-005 0.321664 18.187 70.2328 -16.0105 16.7337 10.73 2.39746 -13.8982 8.99947 -65.5735 -67.1584 -61.0429 -176.404 8.88435 72.5617 -14.6435 -17.021 13.0983 -4.62826 -6.80446 -0.223802 -2.94691 -61.6738 6.10384 -23.508 4.63459e-006 -5.90926e-006 6.29955 -6.30312 1.8003 2.43278 29.9705 4.56852 -0.22259 -5.9823 2.56474 -1.8611 -4.90361 1.23401 -90 0 0 -164.591 15.1592 -8.05563 -13.0683 -5.67365 0.92794 3.3944 -5.22243 3.1791 -90 0 0
102.146 97.028 88.3792 -51.9525 -83.4332 -143.927 -7.19868 -2.43002 4.49016 19.4778 -0.288527 -0.508703 2.7794 1.93418e-006 1.65929e-005 0.305855 18.4721 70.5283 -16.0707 16.3582 10.6323 2.39256 -13.8562 9.00395 -66.1992 -67.3309 -61.7465 -176.373 8.86327 72.4468 -14.7155 -16.9939 13.1678 -4.79953 -6.81759 -0.225021 -2.6903 -62.0008 6.38334 -23.508 4.63459e-006 -5.90926e-006 5.80875 -6.56344 2.45055 2.72217 29.9859 4.27372 -0.220389 -5.96979 2.57475 -1.835 -4.80608 1.47444 -90 0 0 -165.464 15.2937 -7.7805 -11.2135 -5.7195 1.21674 3.0233 -5.3943 3.46329 -90 0 0
101.903 97.0783 88.5742 -50.0803 -83.2745 -141.913 -6.64856 -2.28167 4.30972 19.6262 -0.297111 -0.522254 2.7794 1.93418e-006 1.65929e-005 0.261676 18.6022 70.8027 -16.1518 16.0397 10.6174 2.39009 -13.8335 9.00647 -65.4487 -67.2745 -60.9164 -176.351 9.0096 72.3922 -14.8424 -17.0254 13.1329 -4.74853 -6.81369 -0.222399 -2.80355 -61.5896 6.30974 -23.508 4.63459e-006 -5.90926e-006 5.26615 -6.95506 3.03415 3.00971 30.156 3.92065 -0.208597 -5.95882 2.58399 -1.82951 -4.95053 1.70489 -90 0 0 -166.43 15.2505 -7.40902 -9.30425 -5.75754 1.51563 2.48917 -5.19621 3.83334 -90 0 0
101.619 97.1047 88.7923 -48.4692 -83.1067 -140.191 -6.06607 -2.10616 4.19307 19.7374 -0.303554 -0.532379 2.7794 1.93418e-006 1.65929e-005 0.227174 18.6908 71.0045 -16.317 16.1532 10.6081 2.39191 -13.8453 9.00513 -65.2395 -67.4494 -60.6492 -176.369 9.11758 72.4756 -14.8113 -17.0542 12.9725 -4.70828 -6.81228 -0.221572 -2.75767 -61.6866 6.37424 -23.508 4.63459e-006 -5.90926e-006 4.59835 -7.36147 3.5416 3.26264 30.0653 3.57647 -0.15986 -5.94913 2.59678 -1.77715 -4.85221 1.92422 -90 0 0 -167.304 15.3772 -7.01033 -7.58719 -5.78051 1.78504 2.08286 -5.16352 3.67717 -90 0 0
101.358 97.1224 88.9941 -47.797 -82.8422 -139.499 -5.53919 -1.89063 4.16447 19.8337 -0.309167 -0.541162 2.7794 1.93418e-006 1.65929e-005 0.232514 18.927 71.159 -16.5159 16.0511 10.5765 2.40039 -13.9099 8.99818 -64.8344 -67.4637 -60.2744 -176.379 9.3246 72.5527 -14.857 -17.2011 12.8957 -4.78176 -6.8114 -0.221171 -2.7951 -61.7421 6.22594 -23.508 4.63459e-006 -5.90926e-006 3.87923 -7.63491 3.94393 3.44845 29.8174 3.35372 -0.101936 -5.94108 2.61001 -1.73948 -4.44819 2.06656 -90 0 0 -167.876 15.144 -6.70084 -6.43979 -5.79035 1.96543 1.83473 -4.97731 3.50475 -90 0 0
